<?xml version="1.0" encoding="UTF-8" standalone="no"?>
<!-- Created with Inkscape (http://www.inkscape.org/) -->

<svg
   version="1.1"
   id="svg1"
   width="372.36365"
   height="372.36365"
   viewBox="0 0 372.36365 372.36365"
   sodipodi:docname="ChatGPT_Image_2026년_1월_13일_오전_01_50_40.png"
   inkscape:export-filename="ChatGPT_Image_2026년_1월_13일_오전_01_50_430.png"
   inkscape:export-xdpi="96"
   inkscape:export-ydpi="96"
   xmlns:inkscape="http://www.inkscape.org/namespaces/inkscape"
   xmlns:sodipodi="http://sodipodi.sourceforge.net/DTD/sodipodi-0.dtd"
   xmlns="http://www.w3.org/2000/svg"
   xmlns:svg="http://www.w3.org/2000/svg">
  <defs
     id="defs1" />
  <sodipodi:namedview
     id="namedview1"
     pagecolor="#ffffff"
     bordercolor="#000000"
     borderopacity="0.25"
     inkscape:showpageshadow="2"
     inkscape:pageopacity="0.0"
     inkscape:pagecheckerboard="0"
     inkscape:deskcolor="#d1d1d1">
    <inkscape:page
       x="0"
       y="0"
       width="372.36365"
       height="372.36365"
       id="page2"
       margin="0"
       bleed="0" />
  </sodipodi:namedview>
  <g
     inkscape:groupmode="layer"
     inkscape:label="Image"
     id="g1">
    <g
       id="g2">
      <path
         style="display:inline;fill:#ffffff;stroke-width:0.42314"
         d="m 60.481229,288.65463 c -5.365363,-2.34271 -8.464324,-4.47206 -12.677851,-8.71119 -10.174398,-10.23621 -18.055896,-23.98147 -20.663996,-36.0378 -1.171732,-5.4165 -1.785658,-16.15555 -1.292231,-22.60424 1.001326,-13.08652 5.268365,-25.63511 16.042841,-47.17908 3.43352,-6.86546 7.200311,-14.57719 8.370646,-17.13719 1.170336,-2.56 4.449945,-9.51008 7.288021,-15.44463 6.964802,-14.56372 9.157362,-20.06939 14.997402,-37.65951 2.742983,-8.261814 6.328434,-18.448921 7.967676,-22.638012 2.984304,-7.626414 8.295556,-18.558215 11.718301,-24.119009 7.476508,-12.146771 20.677042,-25.972997 31.536562,-33.031363 8.353,-5.4292 14.95395,-7.954803 32.58182,-12.466205 15.07834,-3.858914 17.47796,-4.2563501 27.34289,-4.5286566 8.93978,-0.2467689 15.24481,0.2117782 21.89551,1.5923984 6.5218,1.3538592 23.16976,5.8165732 28.83102,7.7285482 10.64455,3.594979 20.11846,9.838154 30.29272,19.962481 8.67047,8.627916 14.5003,16.223415 19.65581,25.608912 6.03412,10.984978 9.31779,19.100123 16.61387,41.058886 2.90235,8.73511 6.3257,18.44618 7.60745,21.58016 2.72639,6.66625 11.96306,26.25941 22.93328,48.64691 8.051,16.4301 9.51381,19.8221 12.42545,28.81247 3.52026,10.86963 4.5684,18.43178 4.09154,29.51965 -0.38113,8.86166 -1.54574,14.66095 -4.38851,21.853 -2.60733,6.59641 -5.27619,11.21266 -10.521,18.19792 -5.49991,7.325 -9.71929,11.45994 -14.57115,14.27955 -3.96948,2.30683 -8.67853,4.40715 -9.04947,4.03621 -0.23707,-0.23707 1.57142,-3.87026 2.02737,-4.0729 0.17454,-0.0776 0.31735,-0.68056 0.31735,-1.33995 0,-0.65939 0.19278,-1.26315 0.4284,-1.34169 0.54434,-0.18145 1.41256,-4.62327 1.39192,-7.12112 -0.0202,-2.45035 -0.76192,-5.64169 -1.35727,-5.84014 -0.25467,-0.0849 -0.46305,-0.45412 -0.46305,-0.8205 0,-1.83263 -4.64185,-6.51647 -12.90578,-13.02253 -6.98898,-5.5023 -11.20072,-10.21208 -17.77819,-19.88047 -1.58326,-2.32727 -3.0864,-4.42426 -3.34031,-4.65998 -0.25392,-0.23572 -0.75335,-0.94868 -1.10984,-1.58436 -0.89904,-1.60309 -7.55853,-9.20028 -8.06472,-9.20028 -0.22723,0 -0.99252,-0.59269 -1.70064,-1.31709 -1.53094,-1.56613 -9.13756,-6.72258 -9.91691,-6.72258 -0.29947,0 -0.60796,-0.14281 -0.68554,-0.31736 -0.23957,-0.53904 -4.23462,-2.49435 -7.04635,-3.4487 -1.47064,-0.49917 -3.85081,-1.01352 -5.28925,-1.143 -1.43845,-0.12948 -3.00639,-0.42296 -3.48431,-0.65218 -1.6802,-0.80586 -16.22697,0.27302 -17.23198,1.27803 -0.22484,0.22484 -0.62669,0.3252 -0.893,0.22301 -0.57437,-0.22041 -6.15525,1.40734 -10.00893,2.91926 -2.50582,0.98311 -4.63707,1.53008 -10.92744,2.80446 -1.24894,0.25302 -5.91406,0.57514 -10.36694,0.71582 -7.33298,0.23168 -10.59501,0.0803 -21.00194,-0.97471 -1.04727,-0.10616 -2.50415,-0.46564 -3.2375,-0.79883 -0.73335,-0.33319 -1.73972,-0.6058 -2.23637,-0.6058 -0.49666,0 -1.32474,-0.27305 -1.84019,-0.60677 -1.15416,-0.74726 -10.91693,-3.72974 -11.21924,-3.42743 -0.12022,0.12023 -0.4769,0.004 -0.79262,-0.25782 -0.31572,-0.26203 -1.90894,-0.57192 -3.54048,-0.68866 -1.63154,-0.11673 -3.0681,-0.37673 -3.19235,-0.57777 -0.29307,-0.4742 -10.63449,-0.47884 -10.9274,-0.005 -0.12259,0.19835 -1.51432,0.47313 -3.09275,0.61065 -2.76997,0.24131 -5.91119,1.1497 -9.00539,2.60419 -4.36621,2.05243 -13.11736,7.58167 -13.11736,8.28794 0,0.25169 -0.19041,0.33994 -0.42314,0.1961 -0.23273,-0.14383 -0.42314,0.0225 -0.42314,0.36966 0,0.34714 -0.37348,0.7497 -0.82994,0.89458 -1.02743,0.32609 -7.279744,6.92616 -9.06648,9.57075 -10.887325,16.11459 -13.863374,19.60405 -22.896971,26.84707 -3.258182,2.61237 -7.177626,6.05615 -8.709874,7.65286 -2.986697,3.11234 -5.225274,6.94892 -4.812819,8.24845 0.137938,0.4346 0.04755,0.79019 -0.200859,0.79019 -0.277098,0 -0.451655,1.14475 -0.451655,2.96198 0,1.81723 0.174557,2.96199 0.451655,2.96199 0.257123,0 0.337462,0.35978 0.186527,0.83534 -0.14582,0.45944 0.01662,1.45911 0.360982,2.22149 0.344359,0.76238 0.749287,1.81457 0.899838,2.33821 0.150551,0.52363 0.451311,0.95206 0.668356,0.95206 0.217044,0 0.395337,0.33323 0.396207,0.7405 8.7e-4,0.40727 0.378898,1.35934 0.840062,2.1157 1.066186,1.74867 0.663123,1.74478 -3.40835,-0.033 z M 119.11405,139.4248 c 0.14384,-0.23273 0.59548,-0.42314 1.00366,-0.42314 0.91014,0 2.61244,-1.75636 3.89612,-4.01984 0.52794,-0.93091 1.49455,-2.64463 2.14801,-3.80826 0.65347,-1.16364 1.19157,-2.73455 1.19579,-3.49091 0.004,-0.75637 0.18221,-1.37521 0.39554,-1.37521 0.21333,0 0.38788,-0.83972 0.38788,-1.86606 0,-1.02634 0.18068,-2.21642 0.40152,-2.64463 0.22083,-0.42821 0.64511,-3.44435 0.94284,-6.70253 0.435,-4.76032 0.43759,-6.65125 0.0132,-9.62645 -0.29048,-2.03636 -0.69889,-3.70248 -0.90758,-3.70248 -0.20869,0 -0.37944,-0.47603 -0.37944,-1.05785 0,-0.58182 -0.19041,-1.05785 -0.42314,-1.05785 -0.23272,0 -0.42314,-0.209226 -0.42314,-0.464943 0,-0.750981 -2.40218,-2.778531 -4.48851,-3.788508 -2.96363,-1.434666 -5.87252,-0.998248 -8.8965,1.334742 -2.52636,1.949074 -4.0693,3.675029 -3.74884,4.193529 0.11185,0.18099 -0.0408,0.42277 -0.33927,0.5373 -1.20421,0.46209 -3.15925,5.10135 -5.38827,12.78623 -0.50462,1.73974 -0.39712,12.44611 0.13808,13.75206 0.23844,0.58182 0.39987,1.20939 0.35873,1.39461 -0.0957,0.43109 2.00091,4.02774 3.0652,5.25811 0.44737,0.51718 1.59291,1.46925 2.54565,2.11571 0.95273,0.64645 1.98386,1.41339 2.2914,1.7043 0.30753,0.29091 0.92637,0.52893 1.3752,0.52893 0.44883,0 0.81606,0.19041 0.81606,0.42314 0,0.23272 0.84562,0.42314 1.87916,0.42314 1.03353,0 1.99684,-0.19042 2.14067,-0.42314 z m 139.63637,0 c 0.14383,-0.23273 0.60159,-0.42314 1.01724,-0.42314 0.41565,0 1.10037,-0.38083 1.5216,-0.84628 0.42124,-0.46546 0.94604,-0.84628 1.16624,-0.84628 0.77729,0 4.3465,-3.7956 5.25521,-5.58853 1.79427,-3.54017 2.24998,-6.10724 2.11238,-11.89936 -0.0745,-3.13752 -0.31414,-5.54824 -0.56776,-5.71239 -0.24135,-0.15621 -0.54281,-1.22985 -0.66991,-2.38586 -0.12711,-1.156 -0.44143,-2.17193 -0.6985,-2.25762 -0.25706,-0.0857 -0.36494,-0.32157 -0.23972,-0.52417 0.31788,-0.51436 -0.92779,-3.36761 -1.47023,-3.36761 -0.2446,0 -0.44473,-0.35157 -0.44473,-0.78127 0,-1.01434 -1.21683,-3.45014 -1.72355,-3.45014 -0.21569,0 -0.39215,-0.26964 -0.39215,-0.59921 0,-0.956464 -5.07347,-5.283563 -6.73661,-5.745564 -2.35761,-0.654925 -4.32013,-0.485376 -6.23339,0.538514 -2.26596,1.21264 -4.50034,3.151516 -4.19716,3.642072 0.13017,0.210622 -0.0478,0.492133 -0.3956,0.625579 -0.34776,0.133446 -0.63229,0.591349 -0.63229,1.017569 0,0.42621 -0.23801,1.01287 -0.52892,1.30368 -0.38798,0.38786 -0.51335,2.52458 -0.47047,8.01852 0.0747,9.57411 0.0824,9.68676 0.8102,11.84173 0.33679,0.99722 0.61234,2.47293 0.61234,3.27934 0,0.80641 0.14281,1.46634 0.31735,1.4665 0.17455,1.6e-4 0.34652,0.50357 0.38216,1.11867 0.0653,1.12633 2.77203,6.85637 3.95379,8.36992 1.47734,1.89213 2.55453,2.78219 3.36713,2.78219 0.47604,0 0.86552,0.19041 0.86552,0.42314 0,0.23272 0.84562,0.42314 1.87915,0.42314 1.03354,0 1.99685,-0.19042 2.14068,-0.42314 z"
         id="path5"
         inkscape:label="path5" />
      <path
         style="fill:#f8e1ae"
         d="m 185.54546,372.09875 c 0.75,-0.0784 1.97727,-0.0784 2.72727,0 0.75,0.0785 0.13637,0.14264 -1.36363,0.14264 -1.5,0 -2.11364,-0.0642 -1.36364,-0.14264 z m -7.60646,-0.42692 c -1.23356,-0.1195 -2.37063,-0.34525 -2.52683,-0.50167 -0.27491,-0.27531 1.90761,-0.10754 6.04238,0.46448 1.95809,0.27089 1.96571,0.27645 0.36364,0.26558 -0.9,-0.006 -2.64564,-0.10888 -3.87919,-0.22839 z m 14.42464,-0.009 c 2.81989,-0.4925 6.39588,-0.75447 5.81818,-0.42624 -0.3,0.17045 -2.1,0.40039 -4,0.51097 -2.18516,0.12718 -2.85325,0.096 -1.81818,-0.0847 z m -20.18182,-1.01825 c -0.6,-0.0854 -1.24042,-0.30042 -1.42316,-0.47777 -0.39917,-0.3874 2.26595,-0.0244 3.05953,0.41674 0.61874,0.34393 0.40635,0.35185 -1.63637,0.061 z m 27.81819,-0.0506 c 0.74357,-0.42753 3.47456,-0.82534 3.05952,-0.44566 -0.18274,0.16716 -1.06861,0.40639 -1.96861,0.53161 -0.98171,0.13659 -1.41815,0.1022 -1.09091,-0.086 z m -31.27273,-1.01312 c -0.3,-0.0988 -0.87273,-0.31706 -1.27273,-0.48494 -0.4,-0.16787 -1.68262,-0.68291 -2.85027,-1.14453 -1.16765,-0.46161 -1.95702,-0.89462 -1.75416,-0.96224 0.20285,-0.0676 1.07638,0.19826 1.94118,0.59084 0.86479,0.39258 2.43143,0.99374 3.48143,1.33592 1.84523,0.60133 2.39747,0.93291 1.45455,0.87335 -0.25,-0.0158 -0.7,-0.10957 -1,-0.2084 z m 34.90909,0.12604 c 0,-0.0929 0.85909,-0.44881 1.90909,-0.79099 1.05,-0.34218 2.61665,-0.94334 3.48144,-1.33592 0.86479,-0.39258 1.73832,-0.65846 1.94118,-0.59084 0.20285,0.0676 -0.58652,0.49768 -1.75417,0.95569 -1.16765,0.45802 -2.37382,0.96422 -2.68038,1.12489 -0.72171,0.37825 -2.89716,0.8567 -2.89716,0.63717 z m -42.45455,-3.17299 c -0.45,-0.18087 -0.81818,-0.41596 -0.81818,-0.5224 0,-0.35295 0.57874,-0.20074 1.29414,0.34035 0.80447,0.60848 0.69198,0.65151 -0.47596,0.18205 z m 50.9786,-0.18857 c 0.78174,-0.58406 1.44701,-0.70528 1.13944,-0.20762 -0.10869,0.17585 -0.56834,0.41317 -1.02146,0.52736 -0.79482,0.20031 -0.79898,0.18905 -0.11798,-0.31974 z m -58.30623,-3.29591 c -11.66643,-5.77454 -17.55361,-9.85428 -24.01691,-16.64341 -1.84988,-1.94314 -10.43589,-9.61267 -12.56455,-11.22339 -0.44067,-0.33344 -4.54605,-3.58222 -5.17084,-4.09193 -1.98114,-1.61621 -7.67835,-5.60767 -10.23045,-7.16744 -11.487014,-7.02055 -18.508456,-12.62995 -24.377778,-19.47528 -2.820591,-3.28963 -3.203953,-3.53793 -6.871922,-4.45083 -1.637602,-0.40758 -4.820148,-1.61499 -7.072325,-2.68314 -2.252177,-1.06815 -4.503959,-2.06805 -5.003959,-2.22201 -2.001403,-0.61626 -9.404093,-4.56137 -11.458853,-6.10675 -6.54494,-4.92244 -16.644822,-17.765 -20.936428,-26.62183 -2.687335,-5.546 -5.160162,-13.09645 -5.895131,-18 -0.77434,-5.16621 -1.432448,-14.91832 -1.202437,-17.81818 0.103114,-1.3 0.288001,-3.67273 0.41086,-5.27273 0.323293,-4.21026 1.35439,-9.43094 3.088217,-15.63636 0.503625,-1.80249 2.477989,-7.74231 2.900896,-8.72727 0.171746,-0.4 0.834777,-2.2 1.473402,-4 0.638624,-1.8 1.368602,-3.76364 1.622173,-4.36364 1.206868,-2.8557 3.767951,-8.30448 5.213042,-11.09091 2.946789,-5.68201 8.784259,-17.35626 8.784259,-17.56749 0,-0.11477 0.91516,-2.14086 2.033688,-4.50241 1.118529,-2.36156 2.49752,-5.27555 3.064425,-6.47555 0.566904,-1.2 2.083867,-4.39091 3.371029,-7.09091 4.897144,-10.27244 6.001406,-12.60455 6.887348,-14.54546 1.340159,-2.93601 5.007147,-12.23846 5.007147,-12.70218 0,-0.21923 0.150797,-0.68274 0.335104,-1.03003 0.184308,-0.34728 0.85683,-2.34961 1.494495,-4.44961 0.637664,-2.1 1.538609,-4.88182 2.002099,-6.18182 0.46349,-1.3 1.663208,-4.818178 2.66604,-7.818178 5.80643,-17.370091 9.445716,-26.003837 15.711155,-37.272728 7.990394,-14.371361 22.823334,-30.513824 36.336564,-39.544536 5.13968,-3.434778 15.08753,-8.089067 20,-9.3573745 0.5,-0.1290906 1.23636,-0.3785192 1.63636,-0.5542858 0.4,-0.1757666 1.46364,-0.4831283 2.36364,-0.683026 0.9,-0.1998976 4.17273,-1.0435213 7.27273,-1.8747191 7.73727,-2.0745827 10.80843,-2.8712231 12.72727,-3.3013859 14.46328,-3.24234845 28.44581,-3.24234845 42.90909,0 1.91885,0.4301628 4.99,1.2268032 12.72728,3.3013859 3.1,0.8311978 6.37272,1.6748215 7.27272,1.8747191 0.9,0.1998977 1.96364,0.5072594 2.36364,0.683026 0.4,0.1757666 1.13636,0.4251952 1.63636,0.5542858 4.91247,1.2683075 14.86033,5.9225965 20,9.3573745 13.54721,9.053417 28.20372,25.011741 36.34316,39.57122 6.1753,11.046116 9.8973,19.873476 15.70456,37.246044 1.00283,3 2.20255,6.518178 2.66604,7.818178 0.46349,1.3 1.36444,4.08182 2.0021,6.18182 0.63767,2.1 1.31019,4.10233 1.4945,4.44961 0.1843,0.34729 0.3351,0.8108 0.3351,1.03003 0,0.46372 3.66699,9.76617 5.00715,12.70218 0.88594,1.94091 1.9902,4.27302 6.88735,14.54546 1.28716,2.7 2.80412,5.89091 3.37102,7.09091 0.56691,1.2 1.9459,4.11399 3.06443,6.47555 1.11853,2.36155 2.03369,4.38764 2.03369,4.50241 0,0.21123 5.83747,11.88548 8.78426,17.56749 1.44509,2.78643 4.00617,8.23521 5.21304,11.09091 0.25357,0.6 0.98355,2.56364 1.62217,4.36364 0.63863,1.8 1.30166,3.6 1.4734,4 0.42291,0.98496 2.39727,6.92478 2.9009,8.72727 1.73383,6.20542 2.76492,11.4261 3.08822,15.63636 0.12286,1.6 0.30774,3.97273 0.41086,5.27273 0.23001,2.89986 -0.4281,12.65197 -1.20244,17.81818 -0.73497,4.90355 -3.2078,12.454 -5.89513,18 -4.29161,8.85683 -14.39149,21.69939 -20.93643,26.62183 -2.05476,1.54538 -9.45745,5.49049 -11.45885,6.10675 -0.5,0.15396 -2.75178,1.15386 -5.00396,2.22201 -2.25218,1.06815 -5.43473,2.27556 -7.07233,2.68314 -3.66797,0.9129 -4.05133,1.1612 -6.87192,4.45083 -5.86932,6.84533 -12.89076,12.45473 -24.37778,19.47528 -2.55209,1.55977 -8.2493,5.55123 -10.23044,7.16744 -0.6248,0.50971 -4.73018,3.75849 -5.17085,4.09193 -2.12865,1.61072 -10.71466,9.28025 -12.56455,11.22339 -4.96763,5.21806 -7.83765,7.48585 -14.76533,11.66699 -4.43589,2.67725 -14.9682,7.93173 -15.2779,7.62203 -0.1212,-0.1212 0.23817,-0.39469 0.79859,-0.60776 1.89016,-0.71864 8.69523,-4.12697 11.93456,-5.97745 7.56781,-4.32314 10.59984,-6.55697 15.32918,-11.29372 3.85829,-3.86433 8.37223,-8.04473 11.09091,-10.27138 0.5,-0.40951 1.65335,-1.37465 2.56301,-2.14475 0.90966,-0.77011 2.19697,-1.80928 2.86068,-2.30928 0.66371,-0.5 1.71945,-1.33066 2.34607,-1.84592 2.12661,-1.74862 6.58152,-4.90481 9.99169,-7.07884 12.39885,-7.90444 15.15936,-9.94077 20.25738,-14.94316 9.54804,-9.36893 14.93546,-15.25529 16.93137,-18.49942 1.10618,-1.79797 2.12603,-3.57881 2.26635,-3.95744 0.14031,-0.37862 0.35216,-0.59136 0.47077,-0.47275 0.11861,0.11861 -0.30379,1.05985 -0.93866,2.09165 -0.63487,1.03179 -1.08957,1.94072 -1.01045,2.01985 0.16854,0.16853 2.13535,-0.44065 3.77129,-1.16809 0.63023,-0.28023 1.22282,-0.50952 1.31687,-0.50952 0.0941,0 1.70569,-0.84406 3.58141,-1.8757 4.88728,-2.68797 7.3387,-4.7481 11.6146,-9.76066 7.31611,-8.57656 12.2289,-16.44154 14.87784,-23.81819 0.64637,-1.8 1.31417,-3.6 1.48399,-4 0.67485,-1.58953 1.95945,-7.34679 2.3124,-10.36363 0.10529,-0.9 0.28944,-3.76412 0.40921,-6.3647 0.11977,-2.60059 0.2433,-4.97332 0.2745,-5.27273 0.10723,-1.02885 -0.54726,-10.00022 -0.8621,-11.81712 -0.7671,-4.42691 -2.38651,-10.76085 -3.254,-12.72727 -0.17646,-0.4 -0.47572,-1.3 -0.66502,-2 -0.39846,-1.47343 -2.79573,-8.19871 -3.30533,-9.27273 -0.38966,-0.82124 -1.48418,-3.38094 -2.24226,-5.24384 -0.27838,-0.68411 -1.71805,-3.62957 -3.19926,-6.54545 -4.53584,-8.92923 -8.26944,-16.43928 -9.59573,-19.30162 -0.69504,-1.5 -1.94667,-4.2 -2.78141,-6 -0.83473,-1.8 -1.66076,-3.6 -1.8356,-4 -0.17485,-0.4 -1.86101,-3.91818 -3.74702,-7.81818 -3.74049,-7.73478 -5.63176,-11.75088 -6.59291,-14 -0.34188,-0.8 -0.76553,-1.78182 -0.94144,-2.18182 -0.17592,-0.4 -0.83064,-2.03636 -1.45493,-3.63636 -0.62429,-1.6 -1.34088,-3.4 -1.59242,-4 -0.25155,-0.6 -0.99232,-2.80909 -1.64616,-4.90909 -0.65385,-2.1 -1.32116,-4.14546 -1.48291,-4.54546 -0.16176,-0.4 -0.82674,-2.44545 -1.47773,-4.54545 -0.651,-2.1 -1.28609,-3.98182 -1.41132,-4.18182 -0.12523,-0.2 -0.61111,-1.590912 -1.07974,-3.090912 -0.46863,-1.5 -0.97383,-2.978098 -1.12267,-3.284663 -0.14884,-0.306564 -0.39405,-1.119375 -0.54491,-1.806246 -0.15086,-0.686871 -0.40839,-1.499681 -0.57229,-1.806246 -0.1639,-0.306565 -0.62199,-1.546039 -1.01796,-2.754387 -0.39598,-1.208349 -0.916,-2.681076 -1.15559,-3.272728 -0.23959,-0.591651 -0.55929,-1.403003 -0.71045,-1.803003 -0.7942,-2.1017 -2.02265,-5.089293 -3.66326,-8.909091 -1.98948,-4.632047 -7.25334,-14.629803 -9.50779,-18.058332 -8.4213,-12.806957 -19.63906,-24.392316 -31.00902,-32.025168 -2.9914,-2.008176 -11.97122,-6.643774 -12.86995,-6.643774 -0.20796,0 -0.91548,-0.231949 -1.57226,-0.515441 -0.65679,-0.283493 -2.17597,-0.786902 -3.37597,-1.118688 -1.2,-0.331786 -2.5091,-0.740715 -2.9091,-0.90873 -0.4,-0.168015 -1.46363,-0.481972 -2.36363,-0.697681 -0.9,-0.215709 -3.19091,-0.81085 -5.09091,-1.322536 -5.5134,-1.484805 -12.68151,-3.2951714 -15.63637,-3.9491006 -11.57743,-2.5621595 -26.96802,-2.5621595 -38.54545,0 C 164.68151,9.2326626 157.51341,11.043029 152,12.527834 c -1.9,0.511686 -4.1909,1.106827 -5.0909,1.322536 -0.9,0.215709 -1.96364,0.529666 -2.36364,0.697681 -0.4,0.168015 -1.70909,0.576944 -2.90909,0.90873 -1.2,0.331786 -2.71919,0.835195 -3.37598,1.118688 -0.65678,0.283492 -1.3643,0.515441 -1.57226,0.515441 -0.89873,0 -9.87855,4.635598 -12.86994,6.643774 -11.36997,7.632852 -22.58773,19.218211 -31.009023,32.025168 -2.254451,3.428529 -7.518312,13.426285 -9.50779,18.058332 -1.640614,3.819798 -2.869061,6.807391 -3.663266,8.909091 -0.151155,0.4 -0.470857,1.211352 -0.71045,1.803003 -0.239592,0.591652 -0.759605,2.064379 -1.155583,3.272728 -0.395979,1.208348 -0.854062,2.447822 -1.017962,2.754387 -0.1639,0.306565 -0.421433,1.119375 -0.572296,1.806246 -0.150862,0.686871 -0.396072,1.499682 -0.544911,1.806246 -0.148839,0.306565 -0.654039,1.784663 -1.122668,3.284663 -0.468628,1.5 -0.95451,2.890912 -1.079738,3.090912 -0.125227,0.2 -0.760319,2.08182 -1.411315,4.18182 -0.650997,2.1 -1.315976,4.14545 -1.477731,4.54545 -0.161756,0.4 -0.829065,2.44546 -1.48291,4.54546 -0.653845,2.1 -1.394618,4.30909 -1.646162,4.90909 -0.251544,0.6 -0.970992,2.4 -1.598774,4 -0.627781,1.6 -1.386448,3.48181 -1.685926,4.18181 -0.299478,0.7 -0.684003,1.6 -0.854501,2 -0.689683,1.61805 -3.197985,6.92719 -6.442497,13.63637 -1.886014,3.9 -3.572173,7.41818 -3.74702,7.81818 -0.174847,0.4 -1.00087,2.2 -1.835607,4 -0.834736,1.8 -2.086369,4.5 -2.781407,6 -1.326288,2.86234 -5.059887,10.37239 -9.595732,19.30162 -1.481206,2.91588 -2.920874,5.86134 -3.199262,6.54545 -0.758075,1.8629 -1.852599,4.4226 -2.242259,5.24384 -0.509597,1.07402 -2.906865,7.7993 -3.305325,9.27273 -0.189301,0.7 -0.48856,1.6 -0.665021,2 -0.867489,1.96642 -2.486898,8.30036 -3.254003,12.72727 -0.314836,1.8169 -0.969331,10.78827 -0.862102,11.81712 0.0312,0.29941 0.154732,2.67214 0.274503,5.27273 0.119772,2.60058 0.303917,5.4647 0.409212,6.3647 0.352952,3.01684 1.637547,8.7741 2.312397,10.36363 0.169823,0.4 0.837621,2.2 1.483996,4 2.648934,7.37665 7.561729,15.24163 14.877837,23.81819 4.275896,5.01256 6.727324,7.07269 11.614598,9.76066 1.875719,1.03164 3.487353,1.8757 3.581407,1.8757 0.09405,0 0.686648,0.22929 1.316874,0.50952 1.635944,0.72744 3.602753,1.33662 3.771292,1.16809 0.07912,-0.0791 -0.375583,-0.98806 -1.010453,-2.01985 -0.634871,-1.0318 -1.057266,-1.97304 -0.938656,-2.09165 0.11861,-0.11861 0.330457,0.0941 0.470771,0.47275 0.140314,0.37863 1.160168,2.15947 2.266342,3.95744 1.995915,3.24413 7.383335,9.13049 16.931374,18.49942 5.098021,5.00239 7.858533,7.03872 20.257387,14.94316 3.41016,2.17403 7.86508,5.33022 9.99168,7.07884 0.62663,0.51526 1.68236,1.34592 2.34607,1.84592 0.66371,0.5 1.95102,1.53917 2.86068,2.30928 0.90966,0.7701 2.06302,1.73524 2.56302,2.14475 2.71868,2.22665 7.23262,6.40705 11.09091,10.27138 4.72805,4.73546 7.75416,6.96513 15.32917,11.29471 3.59251,2.05333 11.52811,5.97988 12.08541,5.97988 0.19837,0 0.46181,0.16364 0.58542,0.36364 0.42212,0.68301 -0.37387,0.36204 -5.964,-2.40491 z M 62.074504,284.81819 c -0.265928,-1.38433 -0.05414,-1.44088 0.409993,-0.10947 0.21272,0.61021 0.250716,1.10947 0.08443,1.10947 -0.166281,0 -0.388773,-0.45 -0.494428,-1 z M 311.3337,284.70872 c 0.21272,-0.61021 0.43521,-1.06021 0.49442,-1 0.22525,0.22903 -0.29076,2.10947 -0.57886,2.10947 -0.16628,0 -0.12828,-0.49926 0.0844,-1.10947 z M 61.351905,283.0242 c -0.297655,-0.50368 -0.693916,-2.66056 -0.488797,-2.66056 0.239908,0 0.986742,2.635 0.799814,2.82193 -0.07455,0.0745 -0.21451,0.002 -0.311017,-0.16137 z m 250.853265,-0.66056 c 0.39223,-1.66741 0.96324,-2.42917 0.68144,-0.90909 -0.12977,0.7 -0.39392,1.43637 -0.58701,1.63637 -0.22664,0.23477 -0.26011,-0.023 -0.0944,-0.72728 z M 60.168083,277.65235 c -0.136338,-1.09121 -0.08321,-2.60484 0.11807,-3.36363 0.322821,-1.217 0.370386,-0.98315 0.403539,1.98402 0.02067,1.85 -0.03246,3.36363 -0.11807,3.36363 -0.08561,0 -0.267201,-0.89281 -0.403539,-1.98402 z m 253.014277,-1.28871 c -0.004,-3.1117 0.0327,-3.3013 0.36724,-1.91047 0.2512,1.04453 0.25253,2.16215 0.004,3.45454 -0.35606,1.85234 -0.36736,1.80534 -0.37134,-1.54407 z M 60.756938,272.47823 c -0.04431,-0.64363 0.68893,-2.4263 0.907905,-2.20732 0.104472,0.10447 -0.05039,0.7408 -0.344147,1.41407 -0.293752,0.67326 -0.547443,1.03023 -0.563758,0.79325 z m 251.668932,-0.81968 c -0.23603,-0.67706 -0.35116,-1.309 -0.25586,-1.4043 0.24278,-0.24278 0.97331,1.77038 0.81489,2.24562 -0.0714,0.21434 -0.32301,-0.16426 -0.55903,-0.84132 z M 62.075554,269.18183 c 0.612824,-1.66271 4.378733,-5.73299 8.106266,-8.76144 0.9,-0.73121 1.718182,-1.42171 1.818182,-1.53444 0.1,-0.11273 1.818182,-1.44298 3.818182,-2.95612 4.858825,-3.67603 8.707661,-7.69434 12.936269,-13.50586 1.18834,-1.63318 2.282,-3.13305 2.430357,-3.33305 0.148356,-0.2 1.332066,-1.95909 2.630466,-3.90909 1.2984,-1.95 2.4874,-3.54546 2.642222,-3.54546 0.154822,0 -0.580233,1.23446 -1.633455,2.74323 -1.053222,1.50878 -2.078586,3.01461 -2.278586,3.34628 -0.2,0.33167 -1.737115,2.48482 -3.41581,4.78477 -4.007063,5.48999 -8.943709,10.53093 -14.762139,15.07401 -5.805928,4.53332 -9.661353,8.14879 -11.166332,10.47137 -1.208833,1.86555 -1.508878,2.16564 -1.125622,1.1258 z m 248.541466,-1.1258 c -1.50498,-2.32258 -5.36041,-5.93805 -11.16634,-10.47137 -5.81842,-4.54308 -10.75507,-9.58402 -14.76213,-15.07401 -1.6787,-2.29995 -3.21581,-4.4531 -3.41581,-4.78477 -0.2,-0.33167 -1.22537,-1.8375 -2.27859,-3.34628 -1.05322,-1.50877 -1.78828,-2.74323 -1.63346,-2.74323 0.15483,0 1.34383,1.59546 2.64223,3.54546 1.2984,1.95 2.48211,3.70909 2.63046,3.90909 0.14836,0.2 1.24202,1.69987 2.43036,3.33305 4.22861,5.81152 8.07744,9.82983 12.93627,13.50586 2,1.51314 3.71818,2.84339 3.81818,2.95612 0.1,0.11273 0.91818,0.80323 1.81818,1.53444 3.72754,3.02845 7.49345,7.09873 8.10627,8.76144 0.38325,1.03984 0.0832,0.73975 -1.12562,-1.1258 z M 96.727276,231.09498 c 0,-0.85137 7.890584,-9.74988 9.229744,-10.40873 0.42364,-0.20843 -0.0479,0.42173 -1.04793,1.40036 -2.48211,2.42907 -4.811,5.03016 -6.529264,7.2924 -1.384358,1.82263 -1.65255,2.10111 -1.65255,1.71597 z M 275.43226,229.371 c -1.7125,-2.2547 -4.04357,-4.85779 -6.52316,-7.28439 -1,-0.97863 -1.47157,-1.60879 -1.04793,-1.40036 1.46229,0.71943 9.58439,9.98941 9.14097,10.43284 -0.0757,0.0757 -0.78214,-0.71095 -1.56988,-1.74809 z m -168.34135,-9.73463 c 0.12361,-0.2 0.2969,-0.36364 0.3851,-0.36364 0.0882,0 0.16036,0.16364 0.16036,0.36364 0,0.2 -0.1733,0.36364 -0.3851,0.36364 -0.2118,0 -0.28396,-0.16364 -0.16036,-0.36364 z m 159.09092,-0.0215 c 0,-0.2118 0.16363,-0.28396 0.36363,-0.16036 0.2,0.12361 0.36364,0.2969 0.36364,0.3851 0,0.0882 -0.16364,0.16036 -0.36364,0.16036 -0.2,0 -0.36363,-0.1733 -0.36363,-0.3851 z M 108.0023,219.0128 c 10e-4,-0.15704 0.45127,-0.56407 1,-0.90452 0.54874,-0.34044 2.46914,-1.60862 4.26756,-2.81818 2.96014,-1.99088 3.82105,-2.45662 3.82105,-2.06711 0,0.0726 -1.54455,1.06656 -3.43234,2.20872 -1.88779,1.14215 -3.63342,2.31893 -3.87919,2.61505 -0.56726,0.68351 -1.78011,1.34283 -1.77708,0.96604 z m 156.30862,-0.75076 c -0.671,-0.58054 -2.65182,-1.92502 -4.40182,-2.98774 -3.07078,-1.86478 -3.49522,-2.18338 -2.90872,-2.18338 0.31779,0 5.63556,3.44567 7.118,4.61214 0.55497,0.43668 1.20537,0.86428 1.44533,0.95022 0.23996,0.0859 0.33075,0.27056 0.20176,0.41027 -0.129,0.13971 -0.78354,-0.22097 -1.45455,-0.80151 z m -84.49273,-2.28867 c -3.2,-0.12278 -6.55455,-0.40768 -7.45455,-0.63311 -0.9,-0.22543 -2.37273,-0.56907 -3.27273,-0.76366 -1.49077,-0.32232 -1.42607,-0.33573 0.72728,-0.15079 1.3,0.11165 2.66973,0.3642 3.04385,0.56122 0.37411,0.19703 3.68775,0.47299 7.36363,0.61326 7.54642,0.28797 19.70201,-0.0716 20.73049,-0.61326 0.75303,-0.39657 5.52796,-1.01372 5.20364,-0.67255 -0.11212,0.11793 -1.25757,0.38007 -2.54546,0.58252 -1.28788,0.20245 -3.15979,0.52045 -4.15979,0.70667 -2.44457,0.45524 -12.48202,0.64421 -19.63636,0.3697 z m -14.65482,-2.15025 c -1.75371,-0.41533 -1.96005,-0.87416 -0.25427,-0.56541 1.5672,0.28366 3.03256,0.92537 2,0.87583 -0.3,-0.0144 -1.08558,-0.15408 -1.74573,-0.31042 z m 41.74573,0.0358 c 0.3,-0.18585 1.2,-0.44407 2,-0.57383 0.95672,-0.15517 1.26786,-0.12027 0.90909,0.10198 -0.3,0.18585 -1.2,0.44407 -2,0.57382 -0.95672,0.15518 -1.26786,0.12028 -0.90909,-0.10197 z m -89.45455,-1.0764 c 0,-0.18371 0.32727,-0.4196 0.72727,-0.5242 0.4,-0.1046 0.72727,-0.12945 0.72727,-0.0552 0,0.0742 -0.32727,0.31014 -0.72727,0.52421 -0.40179,0.21503 -0.72727,0.23974 -0.72727,0.0552 z m 44.12931,-0.21755 c -1.98479,-0.86362 -6.77852,-2.45216 -8.85658,-2.93489 -1.37193,-0.3187 -1.67725,-0.4763 -0.97224,-0.50186 1.08249,-0.0392 10.72492,3.05087 11.31769,3.62698 0.49499,0.48109 -0.12936,0.40131 -1.48887,-0.19023 z m 49.1616,0.19023 c 0.59277,-0.57611 10.2352,-3.66623 11.3177,-3.62698 0.71455,0.0259 0.41826,0.18262 -0.97224,0.51426 -2.35259,0.56109 -4.3466,1.20295 -7.77057,2.50131 -2.71751,1.03046 -3.09934,1.12113 -2.57489,0.61141 z m 44.68769,-0.19161 c -0.68174,-0.50934 -0.6779,-0.52032 0.11231,-0.32123 0.45,0.11338 0.81818,0.3507 0.81818,0.52737 0,0.43274 -0.10714,0.40901 -0.93049,-0.20614 z M 119.27273,211.8437 c 0,-0.34198 3.99747,-2.04895 6.72727,-2.87264 2.19367,-0.66191 5.82457,-1.15031 4.72728,-0.63586 -0.4,0.18753 -1.149,0.35246 -1.66443,0.36652 -1.17462,0.032 -7.54286,2.12707 -8.50739,2.79877 -0.70845,0.49337 -1.28273,0.64702 -1.28273,0.34321 z m 133.99001,-0.34321 c -0.96454,-0.6717 -7.33278,-2.76673 -8.5074,-2.79877 -0.51543,-0.0141 -1.26442,-0.17899 -1.66442,-0.36652 -1.09729,-0.51445 2.5336,-0.026 4.72727,0.63586 2.7298,0.82369 6.72727,2.53066 6.72727,2.87264 0,0.30381 -0.57427,0.15016 -1.28272,-0.34321 z m -105.40796,-2.81126 c -1.17987,-0.17215 -2.24251,-0.41029 -2.36142,-0.5292 -0.3478,-0.3478 4.47162,0.25945 4.8521,0.61137 0.21818,0.2018 0.21818,0.30318 0,0.27517 -0.19,-0.0244 -1.31081,-0.18519 -2.49068,-0.35734 z m 75.64665,0.0535 c 0.17422,-0.15995 1.38039,-0.38418 2.68039,-0.49829 1.58298,-0.13894 2.00334,-0.10574 1.27273,0.10053 -1.63079,0.46042 -4.31561,0.73057 -3.95312,0.39776 z m -90.48786,-1.17168 c 0.34254,-0.13594 2.83189,-0.24717 5.53189,-0.24717 2.7,0 5.18935,0.11123 5.53189,0.24717 0.34254,0.13594 -2.14681,0.24717 -5.53189,0.24717 -3.38508,0 -5.87443,-0.11123 -5.53189,-0.24717 z m 96.72727,0 c 0.34254,-0.13594 2.83189,-0.24717 5.53189,-0.24717 2.7,0 5.18935,0.11123 5.53189,0.24717 0.34254,0.13594 -2.14681,0.24717 -5.53189,0.24717 -3.38507,0 -5.87442,-0.11123 -5.53189,-0.24717 z M 115.03473,139.35807 c -0.2309,-0.14694 0.61256,-0.26716 1.87436,-0.26716 1.26181,0 2.21834,0.12273 2.12564,0.27273 -0.21657,0.35041 -3.44767,0.34591 -4,-0.006 z m 139.74874,0.006 c -0.0927,-0.15 0.86383,-0.27273 2.12563,-0.27273 1.2618,0 2.10527,0.12022 1.87437,0.26716 -0.55233,0.35148 -3.78344,0.35598 -4,0.006 z m -141.89578,-1.02006 c -0.66557,-0.53323 -0.65397,-0.5408 0.20322,-0.13256 1.11311,0.53011 1.3194,0.69808 0.85738,0.69808 -0.1951,0 -0.67238,-0.25449 -1.0606,-0.56552 z m 7.31231,0.29178 c 0.19,-0.15056 0.99652,-0.84601 1.79225,-1.54546 0.91137,-0.80108 1.18051,-0.94036 0.72727,-0.37636 -0.94741,1.17893 -2.08916,2.16839 -2.51952,2.18346 -0.21818,0.008 -0.21818,-0.0888 0,-0.26164 z m 132.34546,-0.38847 c -0.4,-0.3509 -1.05105,-1.04091 -1.44679,-1.53335 -0.45324,-0.564 -0.18409,-0.42472 0.72727,0.37636 0.79574,0.69945 1.60225,1.3949 1.79225,1.54546 0.21818,0.17288 0.21818,0.26928 0,0.26164 -0.19,-0.007 -0.67273,-0.2992 -1.07273,-0.65011 z m 7.12121,0.52964 c 0.0833,-0.0729 0.56061,-0.32739 1.06061,-0.56551 0.85719,-0.40824 0.86879,-0.40067 0.20323,0.13256 -0.57928,0.46409 -1.76286,0.86956 -1.26384,0.43295 z M 108.69975,135 l -0.88156,-1 1,0.88157 c 0.93465,0.82396 1.16675,1.11843 0.88156,1.11843 -0.0651,0 -0.51513,-0.45 -1,-1 z m 156.02753,0.0909 c 0.46973,-0.5 0.93587,-0.90909 1.03587,-0.90909 0.1,0 -0.20251,0.40909 -0.67223,0.90909 -0.46973,0.5 -0.93587,0.90909 -1.03587,0.90909 -0.1,0 0.2025,-0.40909 0.67223,-0.90909 z m -141.24935,0.0752 c 0.13656,-0.35863 0.33989,-0.56044 0.45185,-0.44849 0.11195,0.11196 2.3e-4,0.40538 -0.24829,0.65205 -0.35913,0.35646 -0.4009,0.31469 -0.20356,-0.20356 z m 126.50713,0.0824 c -0.13184,-0.21331 -0.16171,-0.46582 -0.0664,-0.56114 0.0953,-0.0953 0.27021,0.0792 0.38864,0.38783 0.24588,0.64077 0.0363,0.75348 -0.32225,0.17331 z m -125.62142,-1.79399 c 0.21407,-0.4 0.47104,-0.72727 0.57104,-0.72727 0.1,0 0.007,0.32727 -0.2074,0.72727 -0.21408,0.4 -0.47105,0.72727 -0.57105,0.72727 -0.1,0 -0.007,-0.32727 0.20741,-0.72727 z m 124.72728,0 c -0.21408,-0.4 -0.30741,-0.72727 -0.20741,-0.72727 0.1,0 0.35697,0.32727 0.57104,0.72727 0.21408,0.4 0.30741,0.72727 0.20741,0.72727 -0.1,0 -0.35697,-0.32727 -0.57104,-0.72727 z m -142.31557,-0.81818 -0.65418,-1.18182 0.74951,0.90909 c 0.66473,0.80625 0.9599,1.45455 0.66227,1.45455 -0.0569,0 -0.3978,-0.53182 -0.7576,-1.18182 z m 159.42013,1 c 0.001,-0.2 0.33713,-0.77273 0.74611,-1.27273 0.4939,-0.60382 0.61738,-0.66488 0.36773,-0.18182 -0.61299,1.1861 -1.11653,1.84367 -1.11384,1.45455 z m -140.74093,-2 c 0.21407,-0.4 0.47104,-0.72728 0.57104,-0.72728 0.1,0 0.007,0.32728 -0.2074,0.72728 -0.21408,0.4 -0.47105,0.72727 -0.57105,0.72727 -0.1,0 -0.007,-0.32727 0.20741,-0.72727 z m 122.54546,0 c -0.21408,-0.4 -0.30741,-0.72728 -0.20741,-0.72728 0.1,0 0.35697,0.32728 0.57104,0.72728 0.21408,0.4 0.30741,0.72727 0.20741,0.72727 -0.1,0 -0.35697,-0.32727 -0.57104,-0.72727 z m -142.56464,-1.32316 c -0.20064,-0.52774 -0.29733,-1.027 -0.21486,-1.10947 0.0825,-0.0825 0.32399,0.34931 0.53672,0.95952 0.47287,1.35648 0.18743,1.48946 -0.32186,0.14995 z m 162.6256,-0.14995 c 0.21272,-0.61021 0.45424,-1.042 0.53671,-0.95952 0.18008,0.18007 -0.50608,2.06899 -0.75157,2.06899 -0.0946,0 0.002,-0.49926 0.21486,-1.10947 z m -141.60138,-0.90691 c 0.095,-0.4969 0.29317,-0.97791 0.44039,-1.0689 0.14723,-0.091 0.18997,0.24112 0.095,0.73802 -0.095,0.49691 -0.29316,0.97791 -0.44039,1.0689 -0.14723,0.091 -0.18997,-0.24111 -0.095,-0.73802 z m 120.6548,0.47093 c -0.0745,-0.25 -0.23116,-0.74941 -0.34806,-1.1098 -0.1169,-0.36039 -0.0703,-0.56735 0.10351,-0.45992 0.17383,0.10743 0.39472,0.60684 0.49087,1.1098 0.17912,0.93701 -0.003,1.27669 -0.24632,0.45992 z m -142.49476,-1.84692 c -0.10862,-0.28306 -0.28797,-1.31284 -0.39857,-2.28841 -0.19194,-1.69315 -0.17818,-1.6746 0.30272,0.40805 0.47797,2.06993 0.52536,2.99963 0.0958,1.88036 z m 164.28603,-0.24399 c 0.10361,-0.5 0.34717,-1.56364 0.54125,-2.36364 0.34243,-1.41154 0.34674,-1.40079 0.1457,0.36364 -0.11394,1 -0.3575,2.06363 -0.54124,2.36363 -0.24017,0.39213 -0.28113,0.28991 -0.14571,-0.36363 z m -141.31251,-2.26131 c 0.16741,-1.00978 0.21862,-1.061 0.33312,-0.33312 0.0744,0.47307 -0.0146,1.01003 -0.19781,1.19325 -0.20174,0.20173 -0.2551,-0.1375 -0.13531,-0.86013 z m 118.36469,0.64618 c -0.11064,-0.28831 -0.13707,-0.82013 -0.0587,-1.18181 0.0889,-0.41063 0.2134,-0.21374 0.33141,0.52421 0.19804,1.23837 0.0693,1.54881 -0.27267,0.6576 z m -117.37763,-5.83942 c 0.30204,-1.8039 0.51247,-2.09424 0.50513,-0.69697 -0.003,0.58334 -0.17277,1.30606 -0.37712,1.60606 -0.26623,0.39083 -0.30252,0.13311 -0.12801,-0.90909 z m 116.37381,0.71322 c -0.12471,-0.32499 -0.2103,-1.0275 -0.19021,-1.56114 0.0294,-0.78049 0.10162,-0.69282 0.36935,0.44826 0.34139,1.45499 0.22636,2.16959 -0.17914,1.11288 z m -140.70427,-4.16776 c 0.11415,-1.3 0.32701,-2.496 0.47303,-2.65777 0.33663,-0.37296 0.002,3.3206 -0.3885,4.29413 -0.16353,0.40722 -0.20073,-0.31291 -0.0845,-1.63636 z m 165.05911,1 c -0.47039,-3.11171 -0.53097,-4.00166 -0.25157,-3.69589 0.16699,0.18274 0.40399,1.35498 0.52668,2.60498 0.2324,2.36784 0.0358,3.14752 -0.27511,1.09091 z m -140.18924,-1.21213 c 0.0174,-0.42361 0.10362,-0.50978 0.2197,-0.21969 0.10504,0.2625 0.0921,0.57613 -0.0287,0.69697 -0.12083,0.12083 -0.20678,-0.0939 -0.19099,-0.47728 z m 115.27273,0 c 0.0174,-0.42361 0.10362,-0.50978 0.2197,-0.21969 0.10504,0.2625 0.0921,0.57613 -0.0287,0.69697 -0.12083,0.12083 -0.20678,-0.0939 -0.19099,-0.47728 z m -114.79329,-6.33333 c 0,-2.9 0.0565,-4.08636 0.12549,-2.63636 0.069,1.45 0.069,3.82273 0,5.27273 -0.069,1.45 -0.12549,0.26363 -0.12549,-2.63637 z m 114.54545,0 c 0,-2.9 0.0565,-4.08636 0.1255,-2.63636 0.069,1.45 0.069,3.82273 0,5.27273 -0.069,1.45 -0.1255,0.26363 -0.1255,-2.63637 z m -138.8277,1.27273 c 0.12973,-0.6 0.37968,-1.33636 0.55544,-1.63636 0.20449,-0.34905 0.23462,-0.15263 0.0837,0.54545 -0.12974,0.6 -0.37969,1.33636 -0.55545,1.63636 -0.20449,0.34905 -0.23462,0.15263 -0.0837,-0.54545 z m 162.71956,-0.4 c -0.20916,-0.75751 -0.31483,-1.44274 -0.23483,-1.52274 0.08,-0.08 0.31658,0.47432 0.52574,1.23183 0.20916,0.75751 0.31483,1.44274 0.23483,1.52274 -0.08,0.08 -0.31658,-0.47432 -0.52574,-1.23183 z m -161.85455,-2.17194 c 0,-0.58432 1.26433,-3.42529 1.52501,-3.4267 0.13875,-7.5e-4 -0.087,0.77591 -0.5017,1.72591 -0.81457,1.86608 -1.02331,2.21301 -1.02331,1.70079 z m 160.46366,-1.61801 c -0.4206,-0.99553 -0.65607,-1.80944 -0.52328,-1.80869 0.30251,0.002 1.65727,3.24948 1.4443,3.46245 -0.086,0.086 -0.50042,-0.65823 -0.92102,-1.65376 z M 108.25828,104 c 0.1046,-0.4 0.34049,-0.72727 0.5242,-0.72727 0.18453,0 0.15983,0.32548 -0.0552,0.72727 -0.21408,0.4 -0.44997,0.72728 -0.52421,0.72728 -0.0742,0 -0.0494,-0.32728 0.0552,-0.72728 z m 156.83264,0 c -0.21503,-0.40179 -0.23974,-0.72727 -0.0552,-0.72727 0.18371,0 0.4196,0.32727 0.52421,0.72727 0.1046,0.4 0.12944,0.72728 0.0552,0.72728 -0.0742,0 -0.31013,-0.32728 -0.5242,-0.72728 z m -136.32146,-0.60662 c -0.0232,-0.23364 -0.14809,-0.72455 -0.27752,-1.09091 -0.1826,-0.51682 -0.13421,-0.57289 0.21592,-0.25018 0.24819,0.22875 0.37307,0.71966 0.27752,1.09091 -0.0956,0.37124 -0.19272,0.48382 -0.21592,0.25018 z m 115.98338,-0.37192 c -0.0141,-0.43819 0.13808,-0.89785 0.33808,-1.02146 0.4301,-0.26582 0.4301,0.09 0,1.09091 -0.30131,0.70118 -0.31344,0.69869 -0.33808,-0.0694 z m -135.65636,-0.31559 c 0.008,-0.50264 0.65389,-1.44035 0.85402,-1.24022 0.0945,0.0945 -0.0602,0.48924 -0.34386,0.87715 -0.28365,0.38792 -0.51322,0.55129 -0.51016,0.36307 z m 154.97759,-0.54059 c -0.24412,-0.3909 -0.29635,-0.71073 -0.11605,-0.71073 0.32647,0 0.8887,1.09268 0.67315,1.30823 -0.0623,0.0623 -0.31298,-0.20659 -0.5571,-0.5975 z m -153.89225,-1.31915 c 0,-0.75806 5.47242,-5.5734 6.33392,-5.5734 0.19466,0 -0.37357,0.461713 -1.26273,1.026029 -0.88915,0.564316 -2.39392,1.891105 -3.34392,2.94842 -0.95,1.057311 -1.72727,1.776841 -1.72727,1.598951 z m 17.45455,-0.48249 c -0.21503,-0.401791 -0.23974,-0.727273 -0.0552,-0.727273 0.18371,0 0.4196,0.327272 0.52421,0.727273 0.1046,0.4 0.12944,0.72727 0.0552,0.72727 -0.0742,0 -0.31013,-0.32727 -0.5242,-0.72727 z m 118.07646,0 c 0.1046,-0.400001 0.34049,-0.727273 0.5242,-0.727273 0.18453,0 0.15983,0.325482 -0.0552,0.727273 -0.21408,0.4 -0.44997,0.72727 -0.52421,0.72727 -0.0742,0 -0.0494,-0.32727 0.0552,-0.72727 z m 16.11108,-1.194054 c -0.89685,-1.011506 -2.3607,-2.302097 -3.25301,-2.867979 -0.8923,-0.565882 -1.45125,-1.028877 -1.2421,-1.028877 0.90046,0 6.72448,5.17789 6.28489,5.58763 -0.0875,0.0816 -0.89293,-0.67927 -1.78978,-1.690774 z m -135.03603,-0.13928 c -0.13333,-0.133333 -0.24242,-0.411515 -0.24242,-0.618182 0,-0.227856 0.16937,-0.206386 0.4303,0.05455 0.23667,0.236666 0.34576,0.514848 0.24243,0.618181 -0.10334,0.103334 -0.29697,0.07879 -0.43031,-0.05455 z m 119.75758,-0.07829 c 0,-0.2 0.16364,-0.464769 0.36364,-0.588376 0.2,-0.123607 0.36363,-0.0611 0.36363,0.138897 0,0.2 -0.16363,0.464769 -0.36363,0.588376 -0.2,0.123607 -0.36364,0.0611 -0.36364,-0.138897 z m -122,-2.224739 c -0.12361,-0.2 -0.0515,-0.363637 0.16036,-0.363637 0.2118,0 0.38509,0.163637 0.38509,0.363637 0,0.2 -0.0722,0.363636 -0.16035,0.363636 -0.0882,0 -0.26149,-0.163636 -0.3851,-0.363636 z m 124.18182,0 c 0,-0.2 0.17329,-0.363637 0.3851,-0.363637 0.2118,0 0.28396,0.163637 0.16035,0.363637 -0.1236,0.2 -0.2969,0.363636 -0.38509,0.363636 -0.0882,0 -0.16036,-0.163636 -0.16036,-0.363636 z M 123.06951,95.798124 c -0.67783,-0.543051 -0.67337,-0.549765 0.11231,-0.169024 0.45,0.21807 0.81818,0.472552 0.81818,0.565515 0,0.278262 -0.18858,0.197905 -0.93049,-0.396491 z m 126.74868,0.409285 c 0,-0.1 0.32727,-0.356969 0.72727,-0.571043 0.4,-0.214073 0.72727,-0.307406 0.72727,-0.207406 0,0.1 -0.32727,0.356969 -0.72727,0.571043 -0.4,0.214073 -0.72727,0.307406 -0.72727,0.207406 z M 117.94382,94.823753 c 0.2309,-0.146938 0.99255,-0.267159 1.69255,-0.267159 0.7,0 1.46164,0.120221 1.69255,0.267159 0.2309,0.146937 -0.53075,0.267159 -1.69255,0.267159 -1.16181,0 -1.92345,-0.120222 -1.69255,-0.267159 z m 134.54546,0 c 0.2309,-0.146938 0.99255,-0.267159 1.69255,-0.267159 0.7,0 1.46164,0.120221 1.69254,0.267159 0.23091,0.146937 -0.53074,0.267159 -1.69254,0.267159 -1.16181,0 -1.92345,-0.120222 -1.69255,-0.267159 z"
         id="path4" />
      <path
         style="fill:#de8d1c"
         d="m 179.27273,371.43645 c -2.3,-0.27972 -4.83636,-0.6851 -5.63636,-0.90085 -2.7588,-0.74401 -7.27691,-2.25321 -8.79823,-2.93891 -0.83903,-0.37817 -1.64004,-0.68759 -1.78003,-0.68759 -0.25748,0 -2.94628,-1.24965 -9.23992,-4.29437 -2.85916,-1.38319 -7.75594,-4.04774 -10.48901,-5.70752 -4.34327,-2.63765 -7.76956,-5.34359 -11.51099,-9.09088 -3.85829,-3.86433 -8.37223,-8.04473 -11.09091,-10.27138 -0.5,-0.40951 -1.65336,-1.37465 -2.56302,-2.14475 -0.90966,-0.77011 -2.19697,-1.80928 -2.86068,-2.30928 -0.66371,-0.5 -1.71944,-1.33066 -2.34607,-1.84592 -2.1266,-1.74862 -6.58152,-4.90481 -9.99168,-7.07884 -6.438941,-4.10491 -12.368208,-8.08352 -14.482481,-9.71792 -4.625702,-3.57582 -19.801546,-19.18316 -22.039099,-22.66575 -4.298577,-6.69041 -5.716975,-10.467 -5.716975,-15.22188 0,-6.73565 2.604811,-10.3594 13.640233,-18.97595 5.81843,-4.54308 10.755076,-9.58402 14.762139,-15.07401 1.678695,-2.29995 3.21581,-4.4531 3.41581,-4.78477 3.871748,-6.42078 11.095553,-15.03509 15.169553,-18.08951 0.40014,-0.3 1.2416,-0.96736 1.8699,-1.48303 1.32669,-1.08885 6.78131,-4.47433 9.83111,-6.10179 5.62003,-2.99902 13.41874,-4.61747 20.7658,-4.30948 2.4,0.1006 5.26364,0.37483 6.36364,0.60939 1.1,0.23456 3.22727,0.6765 4.72727,0.98209 2.99005,0.60915 3.74544,0.84243 9.63637,2.97588 2.2,0.79675 5.30909,1.71614 6.90909,2.04308 1.6,0.32695 3.64545,0.77113 4.54545,0.98707 3.99059,0.9575 25.10033,0.9575 29.09091,0 0.9,-0.21594 2.94546,-0.66012 4.54546,-0.98707 1.6,-0.32694 4.70909,-1.24633 6.90909,-2.04308 5.89093,-2.13345 6.64631,-2.36673 9.63636,-2.97588 1.5,-0.30559 3.62727,-0.74753 4.72727,-0.98209 6.24326,-1.33128 15.51784,-0.65094 22.2398,1.63142 3.85295,1.30823 11.59587,5.60578 14.72075,8.17046 0.62831,0.51567 1.46976,1.18303 1.8699,1.48303 4.074,3.05442 11.29781,11.66873 15.16956,18.08951 0.2,0.33167 1.73711,2.48482 3.41581,4.78477 4.00706,5.48999 8.94371,10.53093 14.76213,15.07401 11.03543,8.61655 13.64024,12.2403 13.64024,18.97595 0,4.75488 -1.4184,8.53147 -5.71698,15.22188 -2.23755,3.48259 -17.41339,19.08993 -22.0391,22.66575 -2.11427,1.6344 -8.04354,5.61301 -14.48247,9.71792 -3.41017,2.17403 -7.86508,5.33022 -9.99169,7.07884 -0.62662,0.51526 -1.68236,1.34592 -2.34607,1.84592 -0.66371,0.5 -1.95102,1.53917 -2.86068,2.30928 -0.90966,0.7701 -2.06301,1.73524 -2.56301,2.14475 -2.71868,2.22665 -7.23262,6.40705 -11.09091,10.27138 -3.74144,3.74729 -7.16773,6.45323 -11.511,9.09088 -2.73307,1.65978 -7.62985,4.32433 -10.489,5.70752 -6.29365,3.04472 -8.98245,4.29437 -9.23993,4.29437 -0.13999,0 -0.941,0.30942 -1.78002,0.68759 -1.52984,0.68954 -6.0755,2.20671 -8.79824,2.93652 -4.44648,1.19185 -14.84315,1.64097 -20.90909,0.90324 z M 155.65627,262.05766 c 1.83799,-1.78774 2.50838,-3.62797 2.51757,-6.91078 0.0214,-7.65183 -4.68712,-14.93771 -10.13807,-15.68741 -3.38104,-0.46501 -6.25664,1.09858 -7.502,4.07916 -2.0526,4.91254 2.43553,14.88662 8.52571,18.94692 0.89716,0.59814 3.7335,1.10325 4.8146,0.85742 0.33074,-0.0752 1.13272,-0.6536 1.78219,-1.28531 z m 69.11757,0.41798 c 6.07578,-4.05192 10.56049,-14.03091 8.51059,-18.93701 -1.7524,-4.19407 -6.8211,-5.45131 -10.95046,-2.71613 -2.63401,1.74469 -4.90557,5.2476 -6.10561,9.41529 -0.81215,2.82057 -0.76737,7.34509 0.0912,9.21676 0.72421,1.57872 2.3722,3.39381 3.44321,3.79233 0.97751,0.36372 4.00874,-0.1028 5.01105,-0.77124 z M 110.49907,136.45455 c -0.45231,-0.57675 -0.43945,-0.58961 0.1373,-0.13729 0.35,0.27449 0.63636,0.56085 0.63636,0.63636 0,0.29929 -0.29861,0.10666 -0.77366,-0.49907 z m 152.04639,0.49907 c 0,-0.0755 0.28637,-0.36187 0.63637,-0.63636 0.57674,-0.45232 0.58961,-0.43946 0.13729,0.13729 -0.47504,0.60573 -0.77366,0.79836 -0.77366,0.49907 z m -140.36364,-0.36364 c 0,-0.0755 0.28637,-0.36187 0.63637,-0.63636 0.57674,-0.45232 0.5896,-0.43945 0.13729,0.13729 -0.47505,0.60573 -0.77366,0.79836 -0.77366,0.49907 z m 128.68089,-0.49907 c -0.45231,-0.57674 -0.43945,-0.58961 0.1373,-0.13729 0.60572,0.47504 0.79835,0.77366 0.49907,0.77366 -0.0755,0 -0.36188,-0.28637 -0.63637,-0.63637 z m -142.90909,-2.18182 c -0.45232,-0.57674 -0.43946,-0.5896 0.13729,-0.13729 0.60573,0.47505 0.79836,0.77366 0.49907,0.77366 -0.0755,0 -0.36187,-0.28637 -0.63636,-0.63637 z m 157.1373,0.49908 c 0,-0.0755 0.28636,-0.36188 0.63636,-0.63637 0.57675,-0.45231 0.58961,-0.43945 0.13729,0.13729 -0.47504,0.60573 -0.77365,0.79836 -0.77365,0.49908 z m -159.06754,-3.39248 c -0.19734,-0.51826 -0.15557,-0.56003 0.20356,-0.20356 0.24852,0.24666 0.36025,0.54008 0.24829,0.65204 -0.11196,0.11196 -0.31529,-0.0899 -0.45185,-0.44848 z m 161.24936,0.2785 c 0,-0.18819 0.16176,-0.44215 0.35947,-0.56434 0.20613,-0.1274 0.26709,0.0186 0.14291,0.34218 -0.24174,0.62997 -0.50238,0.74523 -0.50238,0.22216 z M 125.65975,130.8025 c 0.13655,-0.35862 0.33988,-0.56044 0.45184,-0.44848 0.11196,0.11196 2.3e-4,0.40538 -0.24828,0.65204 -0.35913,0.35647 -0.4009,0.3147 -0.20356,-0.20356 z m 122.14349,0.0824 c -0.13183,-0.2133 -0.16171,-0.46582 -0.0664,-0.56114 0.0953,-0.0953 0.27021,0.0792 0.38864,0.38783 0.24588,0.64077 0.0363,0.75348 -0.32225,0.17331 z m -121.05258,-2.99149 c 0.13655,-0.35862 0.33988,-0.56044 0.45184,-0.44848 0.11196,0.11196 2.3e-4,0.40538 -0.24828,0.65204 -0.35914,0.35646 -0.4009,0.3147 -0.20356,-0.20356 z m 119.96167,0.0824 c -0.13183,-0.21331 -0.16171,-0.46582 -0.0664,-0.56114 0.0953,-0.0953 0.27021,0.0792 0.38864,0.38783 0.24589,0.64077 0.0363,0.75348 -0.32225,0.17331 z m -142.59007,-6.52126 c 0,-1.5 0.0642,-2.11364 0.14264,-1.36364 0.0785,0.75 0.0785,1.97728 0,2.72728 -0.0785,0.75 -0.14264,0.13636 -0.14264,-1.36364 z m 165.45455,0 c 0,-1.5 0.0642,-2.11364 0.14264,-1.36364 0.0785,0.75 0.0785,1.97728 0,2.72728 -0.0784,0.75 -0.14264,0.13636 -0.14264,-1.36364 z m -140.76517,-4 c 0,-0.7 0.0748,-0.98636 0.1663,-0.63636 0.0915,0.35 0.0915,0.92272 0,1.27272 -0.0915,0.35 -0.1663,0.0636 -0.1663,-0.63636 z m 116,0 c 0,-0.7 0.0748,-0.98636 0.1663,-0.63636 0.0915,0.35 0.0915,0.92272 0,1.27272 -0.0915,0.35 -0.1663,0.0636 -0.1663,-0.63636 z m -115.69202,-2.0303 c 0.0174,-0.42362 0.10362,-0.50979 0.2197,-0.2197 0.10504,0.2625 0.0921,0.57614 -0.0287,0.69697 -0.12083,0.12083 -0.20678,-0.0939 -0.19099,-0.47727 z m 115.27273,0 c 0.0174,-0.42362 0.10362,-0.50979 0.2197,-0.2197 0.10504,0.2625 0.0921,0.57614 -0.0287,0.69697 -0.12083,0.12083 -0.20678,-0.0939 -0.19099,-0.47727 z m -139.24402,-2.33334 c 0,-0.5 0.0825,-0.70454 0.18341,-0.45454 0.10088,0.25 0.10088,0.65909 0,0.90909 -0.10088,0.25 -0.18341,0.0454 -0.18341,-0.45455 z m 163.27273,0 c 0,-0.5 0.0825,-0.70454 0.18341,-0.45454 0.10088,0.25 0.10088,0.65909 0,0.90909 -0.10087,0.25 -0.18341,0.0454 -0.18341,-0.45455 z m -139.5683,-8.56114 c -0.11843,-0.30862 -0.13408,-0.64238 -0.0348,-0.74169 0.0993,-0.0993 0.26784,0.1532 0.37451,0.56114 0.2266,0.86652 -0.0252,1.00032 -0.33974,0.18055 z m 115.77678,-0.19528 c 0.12858,-0.49171 0.29342,-0.65654 0.3842,-0.3842 0.0874,0.26234 -0.0139,0.64988 -0.22521,0.86119 -0.26984,0.26984 -0.31716,0.12786 -0.15899,-0.47699 z m -133.72045,-4.10814 c 0,-0.0755 0.28637,-0.361878 0.63637,-0.636367 0.57675,-0.452317 0.58961,-0.439455 0.13729,0.137293 -0.47504,0.605724 -0.77366,0.798354 -0.77366,0.499074 z m 151.22635,-0.499074 c -0.45231,-0.576748 -0.43945,-0.58961 0.1373,-0.137293 0.35,0.274489 0.63636,0.560857 0.63636,0.636367 0,0.29928 -0.29861,0.10665 -0.77366,-0.499074 z m -136.53362,-2 -0.69273,-0.818182 0.81819,0.692723 c 0.76889,0.650988 0.98372,0.94364 0.69272,0.94364 -0.069,0 -0.43719,-0.368181 -0.81818,-0.818181 z m 122.21637,0.09091 c 0.36199,-0.4 0.73999,-0.727273 0.83999,-0.727273 0.1,0 -0.11436,0.327273 -0.47635,0.727273 -0.362,0.4 -0.74,0.727272 -0.84,0.727272 -0.1,0 0.11436,-0.327272 0.47636,-0.727272 z M 113.45455,97.680892 c 0,-0.07551 0.28636,-0.361875 0.63636,-0.636364 0.57675,-0.452316 0.58961,-0.439454 0.1373,0.137293 -0.47505,0.605727 -0.77366,0.798356 -0.77366,0.499071 z m 146.13544,-0.499071 c -0.45232,-0.576747 -0.43946,-0.589609 0.13729,-0.137293 0.60573,0.475044 0.79836,0.773657 0.49907,0.773657 -0.0755,0 -0.36187,-0.286364 -0.63636,-0.636364 z M 122,95.636366 c -0.59287,-0.254767 -0.61364,-0.317242 -0.11237,-0.338078 0.3382,-0.01406 0.71604,0.138078 0.83965,0.338078 0.25842,0.418138 0.24578,0.418138 -0.72728,0 z m 129.18853,-0.06125 c 0.21131,-0.21131 0.59885,-0.312652 0.86119,-0.225205 0.27234,0.09078 0.10751,0.255615 -0.3842,0.3842 -0.60485,0.158173 -0.74683,0.110848 -0.47699,-0.158995 z m -134.1658,-0.187151 c 0.2625,-0.105043 0.57614,-0.09213 0.69697,0.02871 0.12083,0.120833 -0.0939,0.206778 -0.47727,0.190988 -0.42362,-0.01745 -0.50978,-0.103614 -0.2197,-0.219697 z m 139.27273,0 c 0.2625,-0.105043 0.57614,-0.09213 0.69697,0.02871 0.12084,0.120833 -0.0939,0.206778 -0.47727,0.190988 -0.42362,-0.01745 -0.50978,-0.103614 -0.2197,-0.219697 z"
         id="path3" />
      <path
         style="fill:#040403"
         d="m 151.60494,263.2752 c -1.8609,-0.22819 -2.74234,-0.72801 -4.90174,-2.77953 -4.97552,-4.72696 -7.90975,-12.79187 -6.16943,-16.95704 1.24536,-2.98058 4.12096,-4.54417 7.502,-4.07916 5.45095,0.7497 10.15948,8.03558 10.13807,15.68741 -0.009,3.28281 -0.67958,5.12304 -2.51757,6.91078 -1.39264,1.35456 -1.83926,1.48879 -4.05133,1.21754 z m 68.15785,-0.0283 c -1.07101,-0.39852 -2.719,-2.21361 -3.44321,-3.79233 -0.85859,-1.87167 -0.90337,-6.39619 -0.0912,-9.21676 1.20004,-4.16769 3.4716,-7.6706 6.10561,-9.41529 4.12936,-2.73518 9.19806,-1.47794 10.95046,2.71613 2.0499,4.9061 -2.43481,14.88509 -8.51059,18.93701 -1.00231,0.66844 -4.03354,1.13496 -5.01105,0.77124 z M 114.36364,138.64741 c -3.19364,-1.2907 -6.78777,-4.81833 -8.25465,-8.10195 -1.37819,-3.0851 -1.56344,-4.20099 -1.53935,-9.27273 0.0258,-5.43011 0.47315,-7.9745 2.23769,-12.72727 2.62372,-7.06692 6.50347,-11.746287 10.88058,-13.123058 1.89235,-0.595218 2.06387,-0.592277 4.01354,0.06882 3.47271,1.177519 6.26456,4.302327 6.87596,7.695998 0.13458,0.74704 0.39952,1.55374 0.58875,1.79268 0.42557,0.53736 0.17044,9.3261 -0.39379,13.56557 -0.66744,5.01494 -2.0564,10.40096 -3.24638,12.58864 -0.33929,0.62376 -1.00869,1.85103 -1.48754,2.72728 -1.45245,2.65779 -2.54573,3.85877 -4.23597,4.65328 -1.90966,0.89765 -3.453,0.93532 -5.43884,0.13275 z m 139.63637,-0.11844 c -2.06931,-1.01689 -2.62884,-1.74192 -5.7078,-7.39611 -1.18942,-2.18423 -2.5788,-7.57139 -3.24638,-12.5874 -0.56423,-4.23947 -0.81936,-13.02821 -0.3938,-13.56557 0.18923,-0.23894 0.45417,-1.04564 0.58876,-1.79268 0.61139,-3.393666 3.40324,-6.518474 6.87595,-7.695993 1.94968,-0.661092 2.12119,-0.664033 4.01354,-0.06882 4.37711,1.376771 8.25687,6.056143 10.88058,13.123063 1.76455,4.75277 2.2119,7.29716 2.23769,12.72727 0.0241,5.07174 -0.16115,6.18763 -1.53935,9.27273 -2.01194,4.50373 -7.42205,8.75791 -11.08019,8.71278 -0.64595,-0.008 -1.829,-0.33614 -2.629,-0.72927 z"
         id="path2" />
    </g>
  </g>
</svg>
